<svg id="Layer_5" enable-background="new 0 0 64 64" height="512" viewBox="0 0 64 64" width="512" xmlns="http://www.w3.org/2000/svg"><g><g><g><path d="m26 16v6h-22c-1.1 0-2-.9-2-2v-2c0-1.1.9-2 2-2h2 16 2z" fill="#d3a06c"/></g><g><path d="m40 16h2c1.1 0 2 .9 2 2v2c0 1.1-.9 2-2 2h-4v-6z" fill="#d3a06c"/></g><g><path d="m38 22h4v6h-4z" fill="#dfb28b"/></g><g><path d="m34 24v4h-4v-4c0-.55.22-1.05.59-1.41.36-.37.86-.59 1.41-.59 1.1 0 2 .9 2 2z" fill="#dfb28b"/></g><g><path d="m26 22v6h-1-10-10-1v-6z" fill="#dfb28b"/></g><g><path d="m29.71 51.49 5.99 2.39c.2.08.41.12.62.12h-14.32c-1.1 0-2 .9-2 2h-8c-4.42 0-8-3.58-8-8v-10h1 10 10 1v1c0 .55.22 1.05.59 1.41.36.37.86.59 1.41.59 1.1 0 2-.9 2-2v-1h12v10h-4v-4.32c0-.93-.75-1.68-1.68-1.68-.21 0-.42.04-.62.12l-9.7 3.88c0 2.42 1.47 4.59 3.71 5.49z" fill="#dfb28b"/></g><g><path d="m42 28v10h-12v-10h4v4c0 .55.22 1.05.59 1.41.36.37.86.59 1.41.59 1.1 0 2-.9 2-2v-4z" fill="#fcd770"/></g><g><path d="m4 28h22v10h-22z" fill="#fcd770"/></g><g><path d="m20 3v2c0 .55-.45 1-1 1h-2-6-2c-.55 0-1-.45-1-1v-2c0-.55.45-1 1-1h10c.55 0 1 .45 1 1z" fill="#ccd1d9"/></g><g><path d="m22 14.26v1.74h-16v-1.74c0-1.4.74-2.7 1.94-3.43l3.06-1.83v-3h6v3l3.06 1.83c1.2.73 1.94 2.03 1.94 3.43z" fill="#e6e9ed"/></g><g><path d="m35 10 5 6h-2-12-2l5-6z" fill="#b4dd7f"/></g><g><path d="m32 7 4-5 4 3-5 5h-6l-3-4 4-2z" fill="#a0d468"/></g><g><path d="m38 28v4c0 1.1-.9 2-2 2-.55 0-1.05-.22-1.41-.59-.37-.36-.59-.86-.59-1.41v-4-4c0-1.1-.9-2-2-2-.55 0-1.05.22-1.41.59-.37.36-.59.86-.59 1.41v4 10 1c0 1.1-.9 2-2 2-.55 0-1.05-.22-1.41-.59-.37-.36-.59-.86-.59-1.41v-1-10-6-6h12v6z" fill="#69d6f4"/></g><g><path d="m54.66 14.82.14.55c-.11.07-.21.15-.3.24l-1.44 1.45-1.45 1.44c-.09.09-.17.19-.24.3l-.55-.14c-.43-.1-.81-.32-1.12-.63-.93-.94-.93-2.45 0-3.39l.94-.94c.94-.93 2.45-.93 3.39 0 .31.31.53.69.63 1.12z" fill="#e6e9ed"/></g><g><path d="m59.3 18.97c.93.94.93 2.45 0 3.39l-.94.94c-.94.93-2.45.93-3.39 0-.31-.31-.53-.69-.63-1.12l-.14-.55c.11-.07.21-.15.3-.24l1.45-1.44 1.44-1.45c.09-.09.17-.19.24-.3l.55.14c.43.1.81.32 1.12.63z" fill="#e6e9ed"/></g><g><path d="m52 37c-1.105 0-2-.895-2-2v-4c0-1.105.895-2 2-2 1.105 0 2 .895 2 2v4c0 1.105-.895 2-2 2z" fill="#a0d468"/></g><g><path d="m46 32.35c0-1.3 1.05-2.35 2.35-2.35.43 0 .84.12 1.21.33l.48.29c-.03.12-.04.25-.04.38v2 2c0 .13.01.26.04.38l-.48.29c-.37.21-.78.33-1.21.33-1.3 0-2.35-1.05-2.35-2.35z" fill="#e6e9ed"/></g><g><path d="m58 33.65c0 1.3-1.05 2.35-2.35 2.35-.43 0-.84-.12-1.21-.33l-.48-.29c.03-.12.04-.25.04-.38v-2-2c0-.13-.01-.26-.04-.38l.48-.29c.37-.21.78-.33 1.21-.33 1.3 0 2.35 1.05 2.35 2.35z" fill="#e6e9ed"/></g><g><path d="m57.39 15.61c-.71-.7-1.79-.78-2.59-.24-.11.07-.21.15-.3.24l-2.89 2.89c-.09.09-.17.19-.24.3-.54.8-.46 1.88.24 2.59.71.7 1.79.78 2.59.24.11-.07.21-.15.3-.24l2.89-2.89c.09-.09.17-.19.24-.3.54-.8.46-1.88-.24-2.59z" fill="#a0d468"/></g><g><path d="m56 48h2c1.1 0 2.1.45 2.83 1.17.72.73 1.17 1.73 1.17 2.83h-2c-1.1 0-2.1-.45-2.83-1.17-.72-.73-1.17-1.73-1.17-2.83z" fill="#ccd1d9"/></g><g><path d="m60 44h2c0 1.1-.45 2.1-1.17 2.83-.73.72-1.73 1.17-2.83 1.17h-2c0-1.1.45-2.1 1.17-2.83.73-.72 1.73-1.17 2.83-1.17z" fill="#ccd1d9"/></g><g><path d="m26 46 9.7-3.88c.2-.08.41-.12.62-.12.93 0 1.68.75 1.68 1.68v4.32 4.32c0 .93-.75 1.68-1.68 1.68-.21 0-.42-.04-.62-.12l-5.99-2.39c-2.24-.9-3.71-3.07-3.71-5.49z" fill="#e6e9ed"/></g><g><path d="m39 54h1c.55 0 1.05.22 1.41.59.37.36.59.86.59 1.41 0 1.1.9 2 2 2h16c.55 0 1.05.22 1.41.59.37.36.59.86.59 1.41 0 1.1-.9 2-2 2h-27c-.55 0-1.05-.22-1.41-.59-.37-.36-.59-.86-.59-1.41 0-1.1-.9-2-2-2h-7c-1.1 0-2-.9-2-2s.9-2 2-2h14.32z" fill="#69d6f4"/></g></g><g><circle cx="33" cy="47" r="1"/><path d="m63 44v-1h-3c-2.414 0-4.434 1.721-4.899 4h-.101-4.586l3.293-3.293-1.414-1.414-4.707 4.707h-3.172l3.293-3.293-1.414-1.414-3.293 3.293v-22.77c1.161-.414 2-1.514 2-2.816v-2c0-1.654-1.346-3-3-3h-1.531l-4.116-4.939 5.169-5.169-5.698-4.273-3.751 4.689-1.73-2.597-5.861 2.931 3.244 4.325-4.195 5.033h-.531v-.735c0-1.747-.931-3.389-2.428-4.287l-2.572-1.544v-1.434h1c1.103 0 2-.897 2-2v-2c0-1.103-.897-2-2-2h-10c-1.103 0-2 .897-2 2v2c0 1.103.897 2 2 2h1v1.434l-2.572 1.544c-1.497.897-2.428 2.54-2.428 4.287v.735h-1c-1.654 0-3 1.346-3 3v2c0 1.302.839 2.402 2 2.816v25.184c0 4.962 4.037 9 9 9h7.184c.414 1.161 1.514 2 2.816 2h7c.552 0 1 .449 1 1 0 1.654 1.346 3 3 3h27c1.654 0 3-1.346 3-3s-1.346-3-3-3h-16c-.552 0-1-.449-1-1 0-1.654-1.346-3-3-3h-1.098c.058-.218.098-.442.098-.677v-3.323h2.586l4.707 4.707 1.414-1.414-3.293-3.293h3.172l4.707 4.707 1.414-1.414-3.293-3.293h4.586.101c.465 2.279 2.484 4 4.899 4h3v-1c0-1.641-.806-3.088-2.031-4 1.225-.912 2.031-2.359 2.031-4zm-43-12.414-2.586-2.586h5.172zm5-2.172v7.172l-3.586-3.586zm-6.414 3.586-3.586 3.586-3.586-3.586 3.586-3.586zm-8.586-1.414-2.586-2.586h5.172zm-1.414 1.414-3.586 3.586v-7.172zm1.414 1.414 2.586 2.586h-5.172zm10 0 2.586 2.586h-5.172zm5-7.414h-20v-4h20zm2-10h10v15c0 .551-.448 1-1 1s-1-.449-1-1v-8c0-1.654-1.346-3-3-3s-3 1.346-3 3v15c0 .551-.448 1-1 1s-1-.449-1-1zm14 10h-2v-4h2zm-8 0h-2v-3c0-.551.448-1 1-1s1 .449 1 1zm-2 2h2v3c0 1.654 1.346 3 3 3s3-1.346 3-3v-3h2v8h-10zm12-11v2c0 .551-.448 1-1 1h-3v-4h3c.552 0 1 .449 1 1zm-13.343-12.711 2.27 3.403 4.249-5.311 2.302 1.727-3.892 3.892h-5.086l-1.981-2.642zm-.188 5.711h5.063l3.333 4h-11.73zm-20.469-8h10l.001 2h-10.001zm-2 11.265c0-1.048.559-2.033 1.457-2.572l3.543-2.127v-2.566h4v2.566l3.543 2.126c.898.539 1.457 1.525 1.457 2.573v.735h-14zm-4 3.735c0-.551.448-1 1-1h21v4h-21c-.552 0-1-.449-1-1zm38 38c0 1.654 1.346 3 3 3h16c.552 0 1 .449 1 1s-.448 1-1 1h-27c-.552 0-1-.449-1-1 0-1.654-1.346-3-3-3h-7c-.552 0-1-.449-1-1s.448-1 1-1h18c.552 0 1 .449 1 1zm-4.929-3.049-5.986-2.395c-1.667-.667-2.81-2.155-3.041-3.897l9.029-3.611c.419-.169.927.169.927.629v8.646c0 .46-.5.802-.929.628zm.252-11.951c-.343 0-.678.064-.994.191l-10.329 4.132v.677c0 2.841 1.704 5.359 4.343 6.414l1.464.586h-8.807c-1.302 0-2.402.839-2.816 2h-7.184c-3.859 0-7-3.14-7-7v-9h20c0 1.654 1.346 3 3 3s3-1.346 3-3h10v8h-2v-3.323c0-1.476-1.201-2.677-2.677-2.677zm24.506 10h-.829c-1.304 0-2.416-.836-2.829-2h.829c1.304 0 2.416.836 2.829 2zm-3.658-4c.413-1.164 1.525-2 2.829-2h.829c-.413 1.164-1.525 2-2.829 2z"/><path d="m9 48v-5h-2v5c0 2.757 2.243 5 5 5h1v-2h-1c-1.654 0-3-1.346-3-3z"/><path d="m45 33.651c0 1.847 1.503 3.349 3.35 3.349.424 0 .842-.085 1.232-.24.546.748 1.423 1.24 2.418 1.24s1.872-.492 2.418-1.24c.391.155.808.24 1.232.24 1.847 0 3.35-1.502 3.35-3.349v-1.302c0-1.847-1.503-3.349-3.35-3.349-.424 0-.841.086-1.232.24-.546-.748-1.423-1.24-2.418-1.24s-1.872.492-2.418 1.24c-.391-.155-.808-.24-1.232-.24-1.847 0-3.35 1.502-3.35 3.349zm7 2.349c-.552 0-1-.449-1-1v-1h2v1c0 .551-.448 1-1 1zm5-3.651v1.302c0 .744-.605 1.349-1.35 1.349-.228 0-.451-.063-.65-.174v-3.652c.199-.111.422-.174.65-.174.745 0 1.35.605 1.35 1.349zm-5-2.349c.552 0 1 .449 1 1v1h-2v-1c0-.551.448-1 1-1zm-5 2.349c0-.744.605-1.349 1.35-1.349.228 0 .451.063.65.174v3.652c-.199.111-.422.174-.65.174-.745 0-1.35-.605-1.35-1.349z"/><path d="m50.065 19.456c-.15.932.125 1.92.843 2.637.593.593 1.371.889 2.149.889.163 0 .326-.021.488-.047.17.398.411.763.718 1.07.64.641 1.494.995 2.401.995s1.761-.354 2.402-.995l.938-.938c.642-.642.996-1.496.996-2.403s-.354-1.761-.994-2.401c-.307-.308-.672-.549-1.07-.719.15-.932-.126-1.92-.843-2.637s-1.705-.992-2.637-.842c-.17-.398-.411-.763-.718-1.07-1.281-1.283-3.521-1.283-4.804 0l-.938.938c-.642.642-.996 1.495-.996 2.403 0 .907.354 1.761.994 2.401.308.308.673.549 1.071.719zm2.256 1.223c-.196-.197-.305-.458-.305-.736s.108-.539.305-.736l.736-.736 1.471 1.472-.736.736c-.393.392-1.079.391-1.471 0zm6.27.973-.938.938c-.527.528-1.447.528-1.977 0-.17-.17-.288-.382-.353-.613l2.654-2.654c.232.065.444.183.614.354.263.263.409.614.409.987s-.146.724-.409.988zm-1.912-5.331c.196.197.305.458.305.736s-.108.539-.305.736l-.736.736-1.471-1.472.736-.736c.196-.196.458-.305.735-.305.278.001.539.109.736.305zm-6.27-.973.938-.938c.527-.528 1.447-.528 1.977 0 .17.17.288.382.353.613l-2.654 2.654c-.232-.065-.444-.183-.614-.354-.263-.263-.409-.614-.409-.987s.146-.724.409-.988z"/></g></g></svg>